<?xml version="1.0" encoding="UTF-8" standalone="no"?>
<svg
   width="64"
   height="64"
   viewBox="0 0 135.46667 135.46667"
   version="1.1"
   id="svg1"
   sodipodi:docname="logo.svg"
   inkscape:export-filename="logo_sp.png"
   inkscape:export-xdpi="72"
   inkscape:export-ydpi="72"
   inkscape:version="1.3 (0e150ed, 2023-07-21)"
   xmlns:inkscape="http://www.inkscape.org/namespaces/inkscape"
   xmlns:sodipodi="http://sodipodi.sourceforge.net/DTD/sodipodi-0.dtd"
   xmlns="http://www.w3.org/2000/svg"
   xmlns:svg="http://www.w3.org/2000/svg">
  <sodipodi:namedview
     id="namedview1"
     pagecolor="#ffffff"
     bordercolor="#000000"
     borderopacity="0.25"
     inkscape:showpageshadow="2"
     inkscape:pageopacity="0.0"
     inkscape:pagecheckerboard="0"
     inkscape:deskcolor="#d1d1d1"
     inkscape:zoom="6.3069567"
     inkscape:cx="31.711015"
     inkscape:cy="10.30608"
     inkscape:window-width="1536"
     inkscape:window-height="907"
     inkscape:window-x="0"
     inkscape:window-y="25"
     inkscape:window-maximized="0"
     inkscape:current-layer="svg1" />
  <defs
     id="defs1">
    <clipPath
       clipPathUnits="userSpaceOnUse"
       id="clipPath3">
      <rect
         style="fill:#fbecd5;stroke-width:0"
         id="rect3"
         width="135.48474"
         height="135.48164"
         x="4.8056826e-08"
         y="4.8056826e-08"
         ry="21.710278" />
    </clipPath>
  </defs>
  <g
     id="layer1"
     clip-path="url(#clipPath3)">
    <rect
       style="fill:#334c33;fill-opacity:1;fill-rule:nonzero;stroke-width:0;stroke-dasharray:none"
       id="rect1"
       width="135.46666"
       height="135.46666"
       x="0"
       y="0" />
    <path
       style=";fill:#fbecd5;stroke-width:0"
       d="m 213.76964,302.21815 c 2.98667,-0.59734 4.52267,-0.85334 5.888,-0.85334 0.85333,0 1.792,0.0853 2.816,0.256 5.97333,1.19467 8.10666,1.45067 11.43466,1.45067 5.632,0 10.32533,-1.536 13.90933,-4.69333 3.24266,-2.73067 4.864,-6.57066 4.864,-11.60533 0,-3.92533 -0.68267,-6.74133 -2.38933,-9.38666 -2.38934,-3.75467 -6.4,-6.57067 -17.06666,-11.60533 -10.15467,-4.77867 -12.88533,-7.59466 -12.88533,-13.22666 0,-2.816 0.93866,-5.46133 2.47466,-7.424 2.048,-2.38933 4.94933,-3.584 9.04533,-3.584 5.54667,0 9.89867,2.13334 12.288,6.05867 1.36533,2.304 2.048,4.77866 2.38933,8.95999 h 2.816 l 0.512,-16.81066 c -2.304,0.85334 -3.84,1.28 -5.12,1.28 -0.85333,0 -1.87733,-0.17066 -3.15733,-0.42666 -5.376,-1.28 -6.82666,-1.45067 -10.06933,-1.45067 -5.12,0 -8.96,1.28 -12.20266,4.096 -3.49867,3.072 -5.376,7.33866 -5.376,12.37333 0,4.096 1.28,7.42399 3.75467,10.06933 2.38933,2.56 5.03466,4.18133 12.28799,7.67999 12.71466,6.144 15.87199,9.38667 15.87199,16.128 0,6.99733 -4.60799,11.09332 -12.37332,11.09332 -5.632,0 -10.06933,-1.70666 -12.8,-4.86399 -2.304,-2.73067 -3.15733,-5.46133 -3.49866,-10.752 h -2.816 z m 77.48261,-29.95199 14.336,-20.99199 c 4.43733,-6.48533 7.25333,-8.61866 11.77599,-9.04533 v -2.048 h -19.79732 v 2.048 c 5.03466,0.256 6.82666,1.10933 6.82666,3.15733 0,1.45067 -1.10933,3.92533 -2.90133,6.57067 l -12.20266,18.00532 -12.45866,-19.02932 c -2.304,-3.49867 -2.816,-4.52267 -2.816,-5.80267 0,-1.87733 1.62133,-2.73066 5.71733,-2.90133 v -2.048 h -22.10133 v 2.048 c 3.84,0.34133 5.632,1.792 9.55733,7.59466 l 16.384,24.31999 v 17.06666 c 0,7.85067 -0.59734,8.53333 -7.424,8.704 v 2.13333 h 22.52799 v -2.13333 c -6.82666,-0.17067 -7.424,-0.768 -7.424,-8.704 z m 31.74391,29.95199 c 2.98667,-0.59734 4.52267,-0.85334 5.888,-0.85334 0.85333,0 1.792,0.0853 2.816,0.256 5.97333,1.19467 8.10666,1.45067 11.43466,1.45067 5.632,0 10.32533,-1.536 13.90933,-4.69333 3.24266,-2.73067 4.86399,-6.57066 4.86399,-11.60533 0,-3.92533 -0.68266,-6.74133 -2.38933,-9.38666 -2.38933,-3.75467 -6.4,-6.57067 -17.06666,-11.60533 -10.15466,-4.77867 -12.88533,-7.59466 -12.88533,-13.22666 0,-2.816 0.93867,-5.46133 2.47467,-7.424 2.048,-2.38933 4.94933,-3.584 9.04533,-3.584 5.54666,0 9.89866,2.13334 12.28799,6.05867 1.36534,2.304 2.048,4.77866 2.38934,8.95999 h 2.816 l 0.512,-16.81066 c -2.304,0.85334 -3.84,1.28 -5.12,1.28 -0.85334,0 -1.87733,-0.17066 -3.15733,-0.42666 -5.376,-1.28 -6.82667,-1.45067 -10.06933,-1.45067 -5.12,0 -8.96,1.28 -12.20267,4.096 -3.49866,3.072 -5.37599,7.33866 -5.37599,12.37333 0,4.096 1.28,7.42399 3.75466,10.06933 2.38933,2.56 5.03467,4.18133 12.288,7.67999 12.71466,6.144 15.87199,9.38667 15.87199,16.128 0,6.99733 -4.608,11.09332 -12.37333,11.09332 -5.632,0 -10.06933,-1.70666 -12.79999,-4.86399 -2.304,-2.73067 -3.15733,-5.46133 -3.49867,-10.752 h -2.816 z m 56.49061,-11.09333 c -3.49866,0 -6.05866,2.56 -6.05866,5.97333 0,3.41333 2.56,6.05866 6.05866,6.05866 3.41334,0 5.97334,-2.64533 5.97334,-6.05866 0,-3.41333 -2.56,-5.97333 -5.97334,-5.97333 z m 45.39725,-48.89598 c 15.35999,0.17067 17.74933,2.13333 19.96799,16.04266 l 2.73067,-0.17067 -1.536,-17.91999 H 395.8707 l -1.536,17.91999 2.73066,0.17067 c 2.13334,-13.90933 4.608,-15.87199 19.88266,-16.04266 v 48.98131 c 0,4.77867 -0.256,6.48533 -1.36533,7.424 -0.85333,0.85333 -2.90133,1.28 -6.57066,1.28 v 2.13333 h 23.89332 v -2.13333 c -3.41333,0 -5.632,-0.34133 -6.48533,-1.10933 -1.19467,-0.93867 -1.536,-2.56 -1.536,-7.59467 z m 30.63446,48.89598 c -3.49866,0 -6.05866,2.56 -6.05866,5.97333 0,3.41333 2.56,6.05866 6.05866,6.05866 3.41333,0 5.97333,-2.64533 5.97333,-6.05866 0,-3.41333 -2.56,-5.97333 -5.97333,-5.97333 z m -233.13017,60.15998 22.35732,56.66131 h 3.66933 l 22.18666,-56.74665 v 46.67732 c 0,7.76533 -0.59733,8.53333 -6.57066,8.70399 v 2.13334 h 20.73599 v -2.13334 c -6.05867,-0.17066 -6.57067,-0.85333 -6.57067,-8.70399 v -40.19199 c 0,-7.93599 0.42667,-8.44799 6.57067,-8.78932 v -2.048 h -15.872 l -19.96799,50.51731 -20.05332,-50.51731 h -16.29866 v 2.048 c 3.328,0.17066 4.18133,0.42666 5.12,1.36533 0.93866,1.10933 1.27999,2.98666 1.27999,7.42399 v 34.98666 c 0,6.65599 -0.42666,9.98399 -1.70666,11.60533 -1.024,1.53599 -2.816,2.21866 -5.80267,2.30399 v 2.13334 h 18.432 v -2.13334 c -3.41333,-0.0853 -5.20533,-0.768 -6.22933,-2.30399 -1.024,-1.45067 -1.28,-3.75467 -1.28,-11.60533 z m 68.60788,14.33599 v 1.87733 c 2.98666,0 4.352,0.17067 5.03466,0.768 0.93867,0.768 1.28,2.73067 1.28,6.99733 v 22.78399 c 0,7.936 -0.42666,8.61867 -6.31466,8.78933 v 1.87734 h 19.45599 v -1.87734 c -5.71733,-0.17066 -6.144,-0.85333 -6.144,-8.78933 v -17.40799 c 0,-3.584 0.256,-11.00799 0.512,-15.95732 z m 4.69333,-14.25066 c 0,2.73067 2.13333,4.864 4.864,4.864 2.64533,0 4.77866,-2.13333 4.77866,-4.864 0,-2.64533 -2.13333,-4.77866 -4.77866,-4.77866 -2.73067,0 -4.864,2.13333 -4.864,4.77866 z m 42.41049,49.49331 -9.13066,-25.42932 c -0.93867,-2.73066 -1.19467,-3.584 -1.19467,-4.864 0,-2.21866 1.36533,-2.98666 5.12,-3.072 v -1.87733 h -18.85866 v 1.87733 c 4.096,0.34134 4.94933,1.28 7.59466,8.192 l 12.97067,33.53599 -1.87734,4.86399 c -1.87733,4.608 -3.328,5.97334 -6.39999,5.97334 -0.59734,0 -1.19467,-0.0853 -3.072,-0.256 -0.512,-0.0853 -0.93867,-0.0853 -1.28,-0.0853 -1.62134,0 -2.38934,1.024 -2.38934,2.98667 0,2.98666 1.45067,4.352 4.52267,4.352 2.47467,0 5.03466,-1.10934 6.48533,-2.90134 1.10933,-1.28 2.38933,-3.66933 3.41333,-6.14399 l 16.29866,-41.04532 c 2.73067,-6.99733 4.77867,-9.13066 8.87466,-9.472 v -1.87733 h -16.46932 v 1.87733 c 4.43733,0.17067 6.144,1.28 6.144,4.01067 0,1.28 -0.256,2.38933 -1.10934,4.52266 z m 65.62122,5.888 c -3.24266,0 -4.26666,-0.256 -4.77866,-0.93867 -0.512,-0.68266 -0.93867,-3.75466 -0.93867,-7.33866 l 0.0853,-3.92533 0.0853,-8.10666 c 0.17067,-8.36267 0.17067,-8.36267 0.17067,-8.61867 0,-4.69333 -0.768,-7.50933 -2.47467,-9.64266 -2.048,-2.47467 -5.97333,-3.75466 -11.43466,-3.75466 -5.03467,0 -9.216,0.93866 -12.45866,2.73066 -3.584,2.048 -5.80267,5.12 -5.80267,8.192 0,1.792 1.28,2.56 4.18133,2.56 1.28,0 2.38934,-0.256 2.98667,-0.68267 0.68267,-0.512 0.85333,-1.10933 0.93867,-2.90133 0.34133,-5.29067 3.24266,-7.85067 8.87466,-7.85067 3.49866,0 5.888,1.10934 6.99733,3.328 0.85333,1.792 1.19467,3.84 1.19467,7.76533 v 5.376 c -6.22934,0.42667 -10.752,1.024 -15.18933,2.048 -8.27733,1.87733 -12.544,6.22933 -12.544,12.97066 0,3.584 1.45067,6.99733 3.75467,9.04533 2.13333,1.792 4.94933,2.64533 8.70399,2.64533 4.352,0 7.33867,-0.93866 11.09333,-3.66933 1.70667,-1.19466 2.816,-2.13333 4.18134,-3.66933 0.34133,5.71733 1.02399,7.08266 3.58399,7.08266 1.70667,0 5.46133,-0.34133 8.78933,-0.85333 z m -12.37332,-17.83466 c 0,5.632 -0.59734,9.216 -1.96267,11.60533 -2.13333,3.66933 -6.57066,6.22933 -10.92266,6.22933 -4.26667,0 -7.168,-3.66933 -7.168,-9.04533 0,-4.52266 1.96267,-7.936 5.71733,-9.72799 3.41333,-1.70667 6.74133,-2.38934 14.336,-3.072 z m 30.97582,-20.99199 h 10.24 v -2.304 h -10.24 c 0,-5.632 0.0853,-8.87466 0.256,-12.54399 l -3.92533,1.10933 c -1.28,8.02133 -3.84,11.34933 -8.87466,11.77599 v 1.96267 h 5.37599 v 27.64799 c 0,6.31466 0.256,8.192 1.19467,9.89866 1.45067,2.73067 4.608,4.18133 8.78933,4.18133 3.072,0 5.80266,-0.68266 8.61866,-2.13333 l -0.768,-2.21866 c -1.87733,1.10933 -3.49866,1.53599 -5.376,1.53599 -1.96266,0 -3.32799,-0.59733 -4.18133,-1.79199 -0.85333,-1.19467 -1.10933,-3.41334 -1.10933,-8.448 z m 56.57586,38.82665 c -3.24266,0 -4.26666,-0.256 -4.77866,-0.93867 -0.512,-0.68266 -0.93867,-3.75466 -0.93867,-7.33866 l 0.0853,-3.92533 0.0853,-8.10666 c 0.17067,-8.36267 0.17067,-8.36267 0.17067,-8.61867 0,-4.69333 -0.768,-7.50933 -2.47467,-9.64266 -2.048,-2.47467 -5.97333,-3.75466 -11.43466,-3.75466 -5.03467,0 -9.216,0.93866 -12.45866,2.73066 -3.584,2.048 -5.80267,5.12 -5.80267,8.192 0,1.792 1.28,2.56 4.18133,2.56 1.28,0 2.38934,-0.256 2.98667,-0.68267 0.68267,-0.512 0.85333,-1.10933 0.93867,-2.90133 0.34133,-5.29067 3.24266,-7.85067 8.87466,-7.85067 3.49866,0 5.888,1.10934 6.99733,3.328 0.85333,1.792 1.19467,3.84 1.19467,7.76533 v 5.376 c -6.22934,0.42667 -10.752,1.024 -15.18933,2.048 -8.27733,1.87733 -12.544,6.22933 -12.544,12.97066 0,3.584 1.45067,6.99733 3.75467,9.04533 2.13333,1.792 4.94933,2.64533 8.70399,2.64533 4.352,0 7.33867,-0.93866 11.09333,-3.66933 1.70667,-1.19466 2.816,-2.13333 4.18134,-3.66933 0.34133,5.71733 1.02399,7.08266 3.58399,7.08266 1.70667,0 5.46133,-0.34133 8.78933,-0.85333 z m -12.37332,-17.83466 c 0,5.632 -0.59734,9.216 -1.96267,11.60533 -2.13333,3.66933 -6.57066,6.22933 -10.92266,6.22933 -4.26667,0 -7.168,-3.66933 -7.168,-9.04533 0,-4.52266 1.96267,-7.936 5.71733,-9.72799 3.41333,-1.70667 6.74133,-2.38934 14.336,-3.072 z m 30.29315,4.864 6.656,-7.424 8.704,14.16533 c 0.85333,1.536 3.584,6.4 4.43733,8.192 h 11.60533 v -1.87734 c -3.75467,-0.59733 -5.20533,-1.70666 -8.10667,-6.31466 l -11.94666,-18.77333 4.43733,-4.77866 c 5.12,-5.54666 5.46133,-5.80266 8.36267,-7.59466 1.87733,-1.10934 3.24266,-1.62134 5.71733,-1.87734 v -1.87733 h -18.85866 v 1.87733 c 3.75466,0.17067 5.376,1.024 5.376,2.816 0,1.28 -1.024,3.15734 -2.98667,5.29067 l -13.39733,14.67732 v -27.05065 c 0,-4.43733 0.17067,-11.34933 0.512,-17.06666 l -13.39732,0.68267 v 1.87733 c 5.71733,0.0853 6.05866,0.512 6.05866,7.76533 v 41.55731 c 0,7.936 -0.42667,8.61867 -6.05866,8.78933 v 1.87734 h 19.02932 v -1.87734 c -5.71733,-0.17066 -6.144,-0.85333 -6.144,-8.78933 z m 74.15456,-9.13066 c -0.17067,-5.03467 -0.512,-7.08267 -1.36533,-9.38667 -2.64534,-6.91199 -8.53333,-10.83732 -16.29866,-10.83732 -12.032,0 -20.224,9.47199 -20.224,23.29599 0,13.05599 8.36267,22.10132 20.56533,22.10132 8.36266,0 14.16533,-3.66933 18.00533,-11.52 l -1.96267,-1.10933 c -3.41333,6.48533 -8.02133,9.64266 -14.07999,9.64266 -6.144,0 -10.32533,-3.07199 -12.8,-9.38666 -1.36533,-3.49866 -1.87733,-6.912 -1.96267,-12.79999 z m -29.95199,-2.304 c 0.512,-4.43733 1.024,-6.656 2.304,-9.13066 2.304,-4.352 5.71733,-6.656 9.81333,-6.656 4.01066,0 6.912,2.13333 8.78933,6.31466 1.10933,2.47467 1.536,4.94933 1.62133,9.472 z"
       id="text3"
       transform="matrix(0.26458333,0,0,0.26458333,-34.112927,-19.044642)"
       aria-label="SYS.T.Miyatake" />
  </g>
</svg>
