<!--?xml version="1.0" encoding="utf-8"?-->
<svg version="1.1" xmlns="http://www.w3.org/2000/svg" xmlns:xlink="http://www.w3.org/1999/xlink" x="0px" y="0px" width="32px" height="32px" viewBox="0 0 512 512" xml:space="preserve">
<style type="text/css">
	.st0 {
		fill: hsla(136, 35%, 25%, 0.8);
	}
</style>
<g>
	<rect x="151.484" y="301.484" transform="matrix(-0.8155 -0.5787 0.5787 -0.8155 185.4416 708.5811)" class="st0" width="108.34" height="46.503"></rect>
	<path class="st0" d="M430.244,8.24C417.48-0.832,400.903-2.529,386.56,3.727l-29.357,12.828
		c-18.879,8.252-34.8,22.043-45.64,39.558L186.735,257.801l88.346,62.69l149.151-184.424c12.954-16.016,20.718-35.598,22.264-56.142
		l2.414-31.953C450.087,32.374,442.994,17.282,430.244,8.24z M360.312,62.267L225.725,261.012l-6.422-4.552l107.55-175.872
		c8.544-13.972,21.302-24.607,36.9-30.738l9.404-3.7C368.494,51.127,364.201,56.516,360.312,62.267z"></path>
	<path class="st0" d="M113.308,336.554c-32.592,13.348-52.836,46.216-50.098,81.341l6.24,80.346l1.405,1.018l48.599-68.497
		c-2.935-5.98-2.596-13.34,1.531-19.156c6.004-8.465,17.728-10.453,26.185-4.449c8.465,6.004,10.453,17.72,4.449,26.177
		c-4.126,5.814-10.958,8.576-17.577,7.779l-48.678,68.599L88.519,512l77.499-22.114c33.877-9.665,57.64-40.086,58.816-75.289
		l0.852-25.215l-88.354-62.69L113.308,336.554z"></path>
</g>
</svg>
